<svg width="26" height="20" viewBox="0 0 26 20" fill="none" xmlns="http://www.w3.org/2000/svg">
<path d="M25.4659 19.7291V19.7811H25.5144C25.5251 19.7811 25.5343 19.7787 25.541 19.7746C25.5471 19.7706 25.5507 19.7635 25.5507 19.7549C25.5507 19.7463 25.5471 19.7398 25.541 19.7357C25.5343 19.7311 25.5251 19.7291 25.5144 19.7291H25.4659ZM25.5149 19.6928C25.5399 19.6928 25.5594 19.6983 25.5732 19.7095C25.587 19.7205 25.5936 19.7357 25.5936 19.7549C25.5936 19.7711 25.5885 19.7842 25.5773 19.7948C25.5665 19.8049 25.5512 19.8115 25.5307 19.814L25.5952 19.8873H25.5451L25.4853 19.8145H25.4659V19.8873H25.424V19.6928H25.5149ZM25.5021 19.9545C25.5251 19.9545 25.5466 19.9499 25.566 19.9414C25.586 19.9328 25.6033 19.9211 25.6181 19.9065C25.633 19.8918 25.6447 19.8747 25.6534 19.8545C25.6616 19.8348 25.6662 19.8135 25.6662 19.7908C25.6662 19.7681 25.6616 19.7468 25.6534 19.7271C25.6447 19.7075 25.633 19.6898 25.6181 19.6751C25.6033 19.6605 25.586 19.6488 25.566 19.6402C25.5466 19.6321 25.5251 19.6281 25.5021 19.6281C25.4791 19.6281 25.4571 19.6321 25.4373 19.6402C25.4168 19.6488 25.3989 19.6605 25.3841 19.6751C25.3693 19.6898 25.3575 19.7075 25.3494 19.7271C25.3407 19.7468 25.3366 19.7681 25.3366 19.7908C25.3366 19.8135 25.3407 19.8348 25.3494 19.8545C25.3575 19.8747 25.3693 19.8918 25.3841 19.9065C25.3989 19.9211 25.4168 19.9328 25.4373 19.9414C25.4571 19.9499 25.4791 19.9545 25.5021 19.9545ZM25.5021 19.5811C25.5323 19.5811 25.5599 19.5867 25.5864 19.5978C25.6125 19.6084 25.635 19.6235 25.6549 19.6428C25.6744 19.6615 25.6897 19.6837 25.7009 19.7095C25.7122 19.7347 25.7178 19.762 25.7178 19.7908C25.7178 19.8196 25.7122 19.8468 25.7009 19.8721C25.6897 19.8974 25.6744 19.9196 25.6549 19.9388C25.635 19.9575 25.6125 19.9727 25.5864 19.9838C25.5599 19.9949 25.5323 20.0005 25.5021 20.0005C25.4715 20.0005 25.4433 19.9949 25.4168 19.9838C25.3902 19.9727 25.3672 19.9575 25.3478 19.9388C25.3284 19.9196 25.313 19.8974 25.3018 19.8721C25.2906 19.8468 25.285 19.8196 25.285 19.7908C25.285 19.762 25.2906 19.7347 25.3018 19.7095C25.313 19.6837 25.3284 19.6615 25.3478 19.6428C25.3672 19.6235 25.3902 19.6084 25.4168 19.5978C25.4433 19.5867 25.4715 19.5811 25.5021 19.5811ZM5.59284 18.8318C5.59284 18.461 5.83862 18.1564 6.24028 18.1564C6.62404 18.1564 6.88312 18.4479 6.88312 18.8318C6.88312 19.2158 6.62404 19.5074 6.24028 19.5074C5.83862 19.5074 5.59284 19.2027 5.59284 18.8318ZM7.32054 18.8318V17.7769H6.85655V18.0331C6.70938 17.8431 6.48607 17.7239 6.18253 17.7239C5.58415 17.7239 5.11504 18.1877 5.11504 18.8318C5.11504 19.4765 5.58415 19.9398 6.18253 19.9398C6.48607 19.9398 6.70938 19.8206 6.85655 19.6306V19.8868H7.32054V18.8318ZM23.0002 18.8318C23.0002 18.461 23.246 18.1564 23.6477 18.1564C24.0319 18.1564 24.2905 18.4479 24.2905 18.8318C24.2905 19.2158 24.0319 19.5074 23.6477 19.5074C23.246 19.5074 23.0002 19.2027 23.0002 18.8318ZM24.7285 18.8318V16.9297H24.264V18.0331C24.1168 17.8431 23.8935 17.7239 23.5899 17.7239C22.9915 17.7239 22.5224 18.1877 22.5224 18.8318C22.5224 19.4765 22.9915 19.9398 23.5899 19.9398C23.8935 19.9398 24.1168 19.8206 24.264 19.6306V19.8868H24.7285V18.8318ZM13.0801 18.1346C13.379 18.1346 13.5712 18.3201 13.6202 18.6465H12.5128C12.5625 18.3418 12.7494 18.1346 13.0801 18.1346ZM13.0893 17.7239C12.4638 17.7239 12.0264 18.1741 12.0264 18.8318C12.0264 19.5028 12.4817 19.9398 13.1205 19.9398C13.4419 19.9398 13.7363 19.8605 13.9953 19.6443L13.7679 19.3042C13.5891 19.4452 13.3611 19.5251 13.147 19.5251C12.8481 19.5251 12.5757 19.3881 12.5088 19.0081H14.0934C14.0981 18.9511 14.1026 18.8935 14.1026 18.8318C14.0981 18.1741 13.6872 17.7239 13.0893 17.7239ZM18.6919 18.8318C18.6919 18.461 18.9378 18.1564 19.3394 18.1564C19.7232 18.1564 19.9822 18.4479 19.9822 18.8318C19.9822 19.2158 19.7232 19.5074 19.3394 19.5074C18.9378 19.5074 18.6919 19.2027 18.6919 18.8318ZM20.4197 18.8318V17.7769H19.9557V18.0331C19.808 17.8431 19.5852 17.7239 19.2817 17.7239C18.6833 17.7239 18.2142 18.1877 18.2142 18.8318C18.2142 19.4765 18.6833 19.9398 19.2817 19.9398C19.5852 19.9398 19.808 19.8206 19.9557 19.6306V19.8868H20.4197V18.8318ZM16.0715 18.8318C16.0715 19.472 16.5222 19.9398 17.21 19.9398C17.5315 19.9398 17.7456 19.8691 17.9776 19.6882L17.7548 19.3174C17.5806 19.4411 17.3976 19.5074 17.1962 19.5074C16.8258 19.5028 16.5534 19.2381 16.5534 18.8318C16.5534 18.4257 16.8258 18.1609 17.1962 18.1564C17.3976 18.1564 17.5806 18.2225 17.7548 18.3463L17.9776 17.9755C17.7456 17.7946 17.5315 17.7239 17.21 17.7239C16.5222 17.7239 16.0715 18.1918 16.0715 18.8318ZM22.0539 17.7239C21.7861 17.7239 21.6118 17.8477 21.4913 18.0331V17.7769H21.0314V19.8868H21.4958V18.7041C21.4958 18.3549 21.6476 18.1609 21.9512 18.1609C22.0451 18.1609 22.1433 18.1741 22.2414 18.214L22.3845 17.7815C22.2817 17.7416 22.1479 17.7239 22.0539 17.7239ZM9.61549 17.9447C9.39213 17.7991 9.08454 17.7239 8.7452 17.7239C8.20456 17.7239 7.85659 17.9801 7.85659 18.3994C7.85659 18.7435 8.11569 18.9556 8.59298 19.0218L8.81217 19.0526C9.06666 19.088 9.18673 19.1542 9.18673 19.2735C9.18673 19.4366 9.0171 19.5296 8.70029 19.5296C8.37884 19.5296 8.14681 19.428 7.99049 19.3088L7.77176 19.666C8.02626 19.8514 8.34764 19.9398 8.69565 19.9398C9.31192 19.9398 9.66915 19.6528 9.66915 19.2512C9.66915 18.8804 9.38811 18.6864 8.92358 18.6201L8.70486 18.5888C8.50403 18.5626 8.34307 18.5231 8.34307 18.3817C8.34307 18.2271 8.49482 18.1346 8.7493 18.1346C9.02167 18.1346 9.28537 18.2362 9.41466 18.3155L9.61549 17.9447ZM15.6024 17.7239C15.3346 17.7239 15.1604 17.8477 15.0403 18.0331V17.7769H14.5804V19.8868H15.0444V18.7041C15.0444 18.3549 15.1962 18.1609 15.4997 18.1609C15.5938 18.1609 15.6919 18.1741 15.7899 18.214L15.933 17.7815C15.8304 17.7416 15.6964 17.7239 15.6024 17.7239ZM11.6426 17.7769H10.8838V17.1368H10.4147V17.7769H9.98186V18.1963H10.4147V19.1588C10.4147 19.6483 10.6068 19.9398 11.1556 19.9398C11.3569 19.9398 11.589 19.8782 11.7361 19.7766L11.6023 19.3835C11.4638 19.4629 11.312 19.5028 11.1914 19.5028C10.9595 19.5028 10.8838 19.3614 10.8838 19.1497V18.1963H11.6426V17.7769ZM4.70471 19.8868V18.5626C4.70471 18.0639 4.38329 17.7285 3.86512 17.7239C3.59275 17.7194 3.3117 17.8032 3.11497 18.0993C2.9678 17.8654 2.7358 17.7239 2.40978 17.7239C2.18187 17.7239 1.95907 17.7901 1.78481 18.0371V17.7769H1.32031V19.8868H1.7889V18.7171C1.7889 18.3509 1.99433 18.1564 2.31166 18.1564C2.6198 18.1564 2.77566 18.3549 2.77566 18.7126V19.8868H3.24476V18.7171C3.24476 18.3509 3.45887 18.1564 3.76701 18.1564C4.08383 18.1564 4.2356 18.3549 4.2356 18.7126V19.8868H4.70471Z" fill="#9A9C9E"/>
<path d="M25.7552 12.8697V12.5615H25.674L25.58 12.7732L25.4865 12.5615H25.4047V12.8697H25.4625V12.6373L25.5503 12.8378H25.6101L25.698 12.6368V12.8697H25.7552ZM25.2396 12.8697V12.6141H25.3439V12.562H25.0781V12.6141H25.1824V12.8697H25.2396Z" fill="#F79410"/>
<path d="M16.5167 14.1955H9.48438V1.7002H16.5167V14.1955Z" fill="#FF5F00"/>
<path d="M9.93397 7.94672C9.93397 5.41201 11.1343 3.15415 13.0035 1.69908C11.6367 0.635073 9.91144 0 8.0366 0C3.59799 0 0 3.55782 0 7.94672C0 12.3356 3.59799 15.8935 8.0366 15.8935C9.91144 15.8935 11.6367 15.2584 13.0035 14.1944C11.1343 12.7393 9.93397 10.4815 9.93397 7.94672Z" fill="#EB001B"/>
<path d="M26.0001 7.94672C26.0001 12.3356 22.4022 15.8935 17.9636 15.8935C16.0887 15.8935 14.3635 15.2584 12.9961 14.1944C14.8658 12.7393 16.0662 10.4815 16.0662 7.94672C16.0662 5.41201 14.8658 3.15415 12.9961 1.69908C14.3635 0.635073 16.0887 0 17.9636 0C22.4022 0 26.0001 3.55782 26.0001 7.94672Z" fill="#F79E1B"/>
</svg>
