<svg width="32" height="32" viewBox="0 0 32 32" fill="none" xmlns="http://www.w3.org/2000/svg">
<rect width="32" height="32" rx="16" fill="#5181B8"/>
<path fill-rule="evenodd" clip-rule="evenodd" d="M23.6329 11.6771C23.7442 11.2868 23.6329 11 23.1035 11H21.3531C20.908 11 20.703 11.2478 20.5917 11.5211C20.5917 11.5211 19.7015 13.8043 18.4404 15.2875C18.0325 15.7168 17.847 15.8533 17.6245 15.8533C17.5132 15.8533 17.3522 15.7168 17.3522 15.3266V11.6771C17.3522 11.2087 17.223 11 16.8521 11H14.1014C13.8234 11 13.6561 11.2174 13.6561 11.4234C13.6561 11.8675 14.2865 11.9699 14.3515 13.2188V15.9316C14.3515 16.5263 14.2495 16.6342 14.0269 16.6342C13.4335 16.6342 11.9902 14.3405 11.134 11.7162C10.9662 11.2061 10.7979 11 10.3505 11H8.60014C8.10002 11 8 11.2478 8 11.5211C8 12.0089 8.59351 14.4289 10.7631 17.6295C12.2097 19.815 14.2475 21 16.1019 21C17.2147 21 17.3522 20.7368 17.3522 20.2836V18.6316C17.3522 18.1053 17.4576 18.0003 17.8098 18.0003C18.0696 18.0003 18.5146 18.1368 19.5532 19.1907C20.74 20.4395 20.9355 21 21.6032 21H23.3536C23.8537 21 24.1038 20.7368 23.9595 20.2175C23.8017 19.6999 23.2351 18.9491 22.4831 18.0588C22.0752 17.5513 21.4631 17.0049 21.2779 16.7317C21.0182 16.3804 21.0923 16.2243 21.2779 15.9122C21.2779 15.9122 23.4103 12.7507 23.6329 11.6772V11.6771Z" fill="white"/>
</svg>
