<svg width="46" height="20" viewBox="0 0 46 20" fill="none" xmlns="http://www.w3.org/2000/svg">
<path d="M19.9092 17.7661H16.1875L18.5153 2.74707H22.2368L19.9092 17.7661Z" fill="#00579F"/>
<path d="M33.3983 3.11403C32.6643 2.81014 31.4999 2.47461 30.0603 2.47461C26.385 2.47461 23.797 4.51966 23.7811 7.44345C23.7505 9.60062 25.6341 10.7988 27.0428 11.518C28.4826 12.253 28.9722 12.7327 28.9722 13.3879C28.9574 14.3941 27.8087 14.8578 26.7372 14.8578C25.2513 14.8578 24.4551 14.6187 23.2452 14.059L22.7552 13.819L22.2344 17.1904C23.1073 17.6054 24.7155 17.9736 26.385 17.9898C30.2901 17.9898 32.8324 15.9764 32.8624 12.8606C32.8773 11.1509 31.8828 9.84081 29.7386 8.77029C28.4369 8.08309 27.6397 7.61971 27.6397 6.91658C27.655 6.27738 28.314 5.62266 29.7834 5.62266C30.9932 5.59059 31.8822 5.89406 32.5556 6.19774L32.8922 6.35722L33.3983 3.11403Z" fill="#00579F"/>
<path d="M38.3439 12.4454C38.6504 11.5826 39.8298 8.24321 39.8298 8.24321C39.8143 8.27528 40.1357 7.36445 40.3195 6.80531L40.5795 8.09944C40.5795 8.09944 41.2843 11.6945 41.4373 12.4454C40.8557 12.4454 39.0791 12.4454 38.3439 12.4454ZM42.9379 2.74707H40.0592C39.1715 2.74707 38.497 3.01847 38.114 3.99321L32.5859 17.766H36.491C36.491 17.766 37.1339 15.9122 37.272 15.513C37.7004 15.513 41.4992 15.513 42.0504 15.513C42.1572 16.0403 42.4944 17.766 42.4944 17.766H45.9403L42.9379 2.74707Z" fill="#00579F"/>
<path d="M13.0791 2.74707L9.43432 12.9887L9.03604 10.9116C8.36222 8.51482 6.24894 5.91084 3.89062 4.61607L7.22906 17.7502H11.1646L17.0144 2.74707H13.0791Z" fill="#00579F"/>
<path d="M6.04903 2.74707H0.0612573L0 3.05053C4.67084 4.29688 7.76426 7.30117 9.03517 10.9122L7.73352 4.00956C7.51921 3.05032 6.86064 2.77871 6.04903 2.74707Z" fill="#FAA61A"/>
</svg>
