<svg width="49" height="14" viewBox="0 0 49 14" fill="none" xmlns="http://www.w3.org/2000/svg">
<g clip-path="url(#clip0_8078_15604)">
<path fill-rule="evenodd" clip-rule="evenodd" d="M13.203 0.415039V0.420968C13.1971 0.420968 11.3051 0.415039 10.8006 2.19945C10.3381 3.83565 9.03468 8.35301 8.99869 8.47753H8.63832C8.63832 8.47753 7.3049 3.85937 6.83641 2.19352C6.33189 0.409111 4.4339 0.415039 4.4339 0.415039H0.109375V13.9908H4.4339V5.92834H4.61408H4.79427L7.31692 13.9908H10.3201L12.8427 5.93426H13.203V13.9908H17.5276V0.415039H13.203Z" fill="#4DB45E"/>
<path fill-rule="evenodd" clip-rule="evenodd" d="M28.9968 0.415039C28.9968 0.415039 27.7295 0.527676 27.1348 1.83782L24.0717 8.47753H23.7113V0.415039H19.3867V13.9908H23.471C23.471 13.9908 24.7984 13.8722 25.393 12.568L28.3961 5.92833H28.7565V13.9908H33.0811V0.415039H28.9968Z" fill="#4DB45E"/>
<path fill-rule="evenodd" clip-rule="evenodd" d="M35.0039 6.58105V13.9914H39.3284V9.66375H44.0133C46.0554 9.66375 47.7852 8.3773 48.4279 6.58105H35.0039Z" fill="#4DB45E"/>
<path fill-rule="evenodd" clip-rule="evenodd" d="M44.0106 0.415039H34.3945C34.875 2.99977 36.8391 5.07466 39.3797 5.75049C39.9563 5.90462 40.563 5.98762 41.1876 5.98762H48.5994C48.6655 5.67935 48.6955 5.36515 48.6955 5.03909C48.6955 2.48401 46.5993 0.415039 44.0106 0.415039Z" fill="url(#paint0_linear_8078_15604)"/>
</g>
<defs>
<linearGradient id="paint0_linear_8078_15604" x1="34.3957" y1="3.20133" x2="48.6955" y2="3.20133" gradientUnits="userSpaceOnUse">
<stop offset="0.3" stop-color="#00B4E6"/>
<stop offset="1" stop-color="#088CCB"/>
</linearGradient>
<clipPath id="clip0_8078_15604">
<rect width="49" height="14" fill="white"/>
</clipPath>
</defs>
</svg>
