<svg width="32" height="32" viewBox="0 0 32 32" fill="none" xmlns="http://www.w3.org/2000/svg">
<rect width="32" height="32" rx="16" fill="#FF0000"/>
<path fill-rule="evenodd" clip-rule="evenodd" d="M22.2602 10.741C22.9456 10.9255 23.4859 11.4659 23.6704 12.1512C24.0131 13.4032 23.9999 16.0128 23.9999 16.0128C23.9999 16.0128 23.9999 18.6092 23.6704 19.8612C23.4859 20.5465 22.9456 21.0869 22.2602 21.2714C21.0082 21.6009 16 21.6009 16 21.6009C16 21.6009 11.0049 21.6009 9.7397 21.2582C9.05436 21.0737 8.514 20.5334 8.32949 19.848C8 18.6092 8 15.9996 8 15.9996C8 15.9996 8 13.4032 8.32949 12.1512C8.514 11.4659 9.06754 10.9123 9.7397 10.7278C10.9918 10.3983 16 10.3983 16 10.3983C16 10.3983 21.0082 10.3983 22.2602 10.741ZM18.571 16.0001L14.4062 18.3988V13.6014L18.571 16.0001Z" fill="white"/>
</svg>
