<svg width="27" height="20" viewBox="0 0 27 20" fill="none" xmlns="http://www.w3.org/2000/svg">
<path fill-rule="evenodd" clip-rule="evenodd" d="M17.2825 19.44C22.6512 19.44 27.0025 15.0887 27.0025 9.72C27.0025 4.35132 22.6512 0 17.2825 0C11.9138 0 7.5625 4.35132 7.5625 9.72C7.5625 15.0887 11.9138 19.44 17.2825 19.44ZM17.2825 13.5C19.3701 13.5 21.0625 11.8076 21.0625 9.72C21.0625 7.63236 19.3701 5.94 17.2825 5.94C15.1949 5.94 13.5025 7.63236 13.5025 9.72C13.5025 11.8076 15.1949 13.5 17.2825 13.5Z" fill="#8A42F9"/>
<path d="M7.56 3.24023H0L4.03161 16.2002H7.56V3.24023Z" fill="#8A42F9"/>
</svg>
