<svg width="19" height="19" viewBox="0 0 19 19" fill="none" xmlns="http://www.w3.org/2000/svg">
<mask id="mask0_8078_15610" style="mask-type:alpha" maskUnits="userSpaceOnUse" x="0" y="0" width="19" height="19">
<path fill-rule="evenodd" clip-rule="evenodd" d="M16.996 9.24001C16.999 9.32701 17 9.413 17 9.5C17 13.642 13.642 17 9.5 17C5.358 17 2 13.642 2 9.5C2 5.358 5.358 2 9.5 2C11.024 2 12.441 2.454 13.624 3.235L15.257 1.942C13.66 0.724001 11.664 0 9.5 0C4.253 0 0 4.253 0 9.5C0 14.747 4.253 19 9.5 19C14.747 19 19 14.747 19 9.5C19 8.913 18.947 8.338 18.845 7.78L16.996 9.24001Z" fill="#C4C4C4"/>
</mask>
<g mask="url(#mask0_8078_15610)">
<path d="M16.994 9.203C16.998 9.302 17 9.401 17 9.5C17 13.642 13.642 17 9.5 17C5.358 17 2 13.642 2 9.5C2 5.358 5.358 2 9.5 2C11.024 2 12.441 2.454 13.624 3.235L15.257 1.942C13.66 0.724001 11.664 0 9.5 0C4.253 0 0 4.253 0 9.5C0 14.747 4.253 19 9.5 19C14.747 19 19 14.747 19 9.5C19 8.895 18.943 8.303 18.835 7.729L16.994 9.203Z" fill="#24A236"/>
<path d="M8.40385 8.03914C13.0452 8.03914 16.8077 4.2766 16.8077 -0.364716C16.8077 -5.00603 13.0452 -8.76855 8.40385 -8.76855C3.76254 -8.76855 0 -5.00603 0 -0.364716C0 4.2766 3.76254 8.03914 8.40385 8.03914Z" fill="#008ACB"/>
<g filter="url(#filter0_f_8078_15610)">
<path d="M7.30769 27.0392C11.3436 27.0392 14.6154 23.7674 14.6154 19.7315C14.6154 15.6956 11.3436 12.4238 7.30769 12.4238C3.27177 12.4238 0 15.6956 0 19.7315C0 23.7674 3.27177 27.0392 7.30769 27.0392Z" fill="#77F628"/>
</g>
<g filter="url(#filter1_f_8078_15610)">
<path d="M0.729568 13.1544C4.76549 13.1544 8.03726 9.88267 8.03726 5.84674C8.03726 1.81081 4.76549 -1.46094 0.729568 -1.46094C-3.30636 -1.46094 -6.57812 1.81081 -6.57812 5.84674C-6.57812 9.88267 -3.30636 13.1544 0.729568 13.1544Z" fill="#19E7E8"/>
</g>
<g filter="url(#filter2_f_8078_15610)">
<path d="M-0.00151062 19.0009C3.22723 19.0009 5.84464 16.3835 5.84464 13.1548C5.84464 9.92602 3.22723 7.30859 -0.00151062 7.30859C-3.23025 7.30859 -5.84766 9.92602 -5.84766 13.1548C-5.84766 16.3835 -3.23025 19.0009 -0.00151062 19.0009Z" fill="#DEFA1B"/>
</g>
</g>
<path fill-rule="evenodd" clip-rule="evenodd" d="M18.049 5.35098L9.5 12V9.49998L16.999 3.66699C17.405 4.18799 17.757 4.75198 18.049 5.35098Z" fill="#24A236"/>
<path fill-rule="evenodd" clip-rule="evenodd" d="M6 9.80452L9.5 11.9995V9.49953L6 7.31152V9.80452Z" fill="#24A236"/>
<defs>
<filter id="filter0_f_8078_15610" x="-8" y="4.42383" width="30.6172" height="30.6155" filterUnits="userSpaceOnUse" color-interpolation-filters="sRGB">
<feFlood flood-opacity="0" result="BackgroundImageFix"/>
<feBlend mode="normal" in="SourceGraphic" in2="BackgroundImageFix" result="shape"/>
<feGaussianBlur stdDeviation="4" result="effect1_foregroundBlur_8078_15610"/>
</filter>
<filter id="filter1_f_8078_15610" x="-14.5781" y="-9.46094" width="30.6172" height="30.6154" filterUnits="userSpaceOnUse" color-interpolation-filters="sRGB">
<feFlood flood-opacity="0" result="BackgroundImageFix"/>
<feBlend mode="normal" in="SourceGraphic" in2="BackgroundImageFix" result="shape"/>
<feGaussianBlur stdDeviation="4" result="effect1_foregroundBlur_8078_15610"/>
</filter>
<filter id="filter2_f_8078_15610" x="-11.8477" y="1.30859" width="23.6914" height="23.6923" filterUnits="userSpaceOnUse" color-interpolation-filters="sRGB">
<feFlood flood-opacity="0" result="BackgroundImageFix"/>
<feBlend mode="normal" in="SourceGraphic" in2="BackgroundImageFix" result="shape"/>
<feGaussianBlur stdDeviation="3" result="effect1_foregroundBlur_8078_15610"/>
</filter>
</defs>
</svg>
